<svg xmlns="http://www.w3.org/2000/svg" xmlns:xlink="http://www.w3.org/1999/xlink" version="1.1" x="0px" y="0px" viewBox="0 0 100 100" enable-background="new 0 0 100 100" xml:space="preserve"><g><path d="M51,27.2c-3.4,0-6.2,2.8-6.2,6.2c0,3.4,2.8,6.2,6.2,6.2s6.2-2.8,6.2-6.2C57.2,29.9,54.4,27.2,51,27.2z"></path><rect x="45.3" y="42.6" width="11.4" height="26.4"></rect><path d="M50,5C25.2,5,5,25.2,5,50s20.2,45,45,45s45-20.2,45-45S74.8,5,50,5z M50,89.8c-21.9,0-39.8-17.8-39.8-39.8   S28.1,10.2,50,10.2S89.8,28.1,89.8,50S71.9,89.8,50,89.8z"></path></g></svg>