<svg xmlns="http://www.w3.org/2000/svg" xmlns:xlink="http://www.w3.org/1999/xlink" xmlns:sketch="http://www.bohemiancoding.com/sketch/ns" viewBox="0 0 100 100" version="1.1" x="0px" y="0px"><title>eye-fill 31</title><desc>Created with Sketch.</desc><g stroke="none" stroke-width="1" fill="none" fill-rule="evenodd" sketch:type="MSPage"><path d="M70.51375,67.40125 C67.40875,62.45875 62.6575,58.855 57.20875,57.1225 C60.055,54.91375 61.91875,51.50125 61.91875,47.63125 C61.91875,40.98625 56.515,35.57875 49.86625,35.57875 C43.22125,35.57875 37.81375,40.98625 37.81375,47.63125 C37.81375,51.50125 39.6775,54.9175 42.52375,57.1225 C37.075,58.855 32.32375,62.45875 29.21875,67.40125 C25.195,62.66875 22.75,56.5525 22.75,49.87 C22.75,34.915 34.915,22.75 49.86625,22.75 C64.8175,22.75 76.9825,34.915 76.9825,49.87 C76.9825,56.5525 74.5375,62.66875 70.51375,67.40125 M41.56375,47.63125 C41.56375,43.0525 45.2875,39.32875 49.86625,39.32875 C54.445,39.32875 58.16875,43.0525 58.16875,47.63125 C58.16875,52.21 54.445,55.93375 49.86625,55.93375 C45.2875,55.93375 41.56375,52.21 41.56375,47.63125 M49.86625,76.9825 C42.95125,76.9825 36.655,74.36125 31.8625,70.08625 C31.9075,70.02625 31.9825,69.99625 32.02375,69.925 C35.72125,63.61 42.55375,59.68375 49.86625,59.68375 C57.175,59.68375 64.01125,63.61 67.705,69.92125 C67.74625,69.9925 67.81,70.03375 67.85875,70.0975 C63.06625,74.365 56.77375,76.9825 49.86625,76.9825 M49.86625,19 C32.84875,19 19,32.84875 19,49.87 C19,66.8875 32.84875,80.7325 49.86625,80.7325 C66.88375,80.7325 80.7325,66.8875 80.7325,49.87 C80.7325,32.84875 66.88375,19 49.86625,19" fill="#000000" sketch:type="MSShapeGroup"></path></g></svg>