<?xml version="1.0" encoding="utf-8"?>
<!-- Generator: Adobe Illustrator 19.1.0, SVG Export Plug-In . SVG Version: 6.00 Build 0)  -->
<svg version="1.1" id="Layer_1" xmlns:sketch="http://www.bohemiancoding.com/sketch/ns"
	 xmlns="http://www.w3.org/2000/svg" xmlns:xlink="http://www.w3.org/1999/xlink" x="0px" y="0px" viewBox="-243 358.5 75.1 77"
	 style="enable-background:new -243 358.5 75.1 77;" xml:space="preserve">
<title>eye-fill 31</title>
<desc>Created with Sketch.</desc>
<g sketch:type="MSPage">
	<path sketch:type="MSShapeGroup" d="M-184.5,414.4c-3.1-4.9-7.9-8.5-13.3-10.3c2.8-2.2,4.7-5.6,4.7-9.5c0-6.6-5.4-12.1-12.1-12.1
		c-6.6,0-12.1,5.4-12.1,12.1c0,3.9,1.9,7.3,4.7,9.5c-5.4,1.7-10.2,5.3-13.3,10.3c-4-4.7-6.5-10.8-6.5-17.5c0-15,12.2-27.1,27.1-27.1
		s27.1,12.2,27.1,27.1C-178,403.6-180.5,409.7-184.5,414.4 M-213.4,394.6c0-4.6,3.7-8.3,8.3-8.3s8.3,3.7,8.3,8.3s-3.7,8.3-8.3,8.3
		S-213.4,399.2-213.4,394.6 M-205.1,424c-6.9,0-13.2-2.6-18-6.9c0-0.1,0.1-0.1,0.2-0.2c3.7-6.3,10.5-10.2,17.8-10.2
		c7.3,0,14.1,3.9,17.8,10.2c0,0.1,0.1,0.1,0.2,0.2C-191.9,421.4-198.2,424-205.1,424 M-205.1,366c-17,0-30.9,13.8-30.9,30.9
		c0,17,13.8,30.9,30.9,30.9s30.9-13.8,30.9-30.9C-174.3,379.8-188.1,366-205.1,366"/>
</g>
</svg>
