<svg xmlns="http://www.w3.org/2000/svg" xmlns:xlink="http://www.w3.org/1999/xlink" version="1.1" x="0px" y="0px" viewBox="0 0 100 100" enable-background="new 0 0 100 100" xml:space="preserve"><path fill="#000000" d="M90.7,48c-0.2-0.6-0.4-1.1-0.6-1.7c-0.1-0.2-0.1-0.3-0.2-0.4c-0.2-0.4-0.3-0.8-0.5-1.2  c0-0.1-0.1-0.2-0.1-0.3c-0.2-0.5-0.5-1-0.7-1.5c-0.1-0.1-0.1-0.2-0.2-0.3c-0.2-0.4-0.4-0.7-0.6-1.1c-0.1-0.1-0.2-0.3-0.2-0.4  c-0.3-0.4-0.5-0.8-0.8-1.2c0,0,0,0,0,0c-0.3-0.4-0.6-0.8-0.9-1.2c-0.1-0.1-0.2-0.2-0.3-0.3c-0.2-0.3-0.5-0.6-0.7-0.8  c-0.1-0.1-0.2-0.2-0.2-0.3c-0.3-0.3-0.6-0.7-1-1c-0.1-0.1-0.2-0.2-0.3-0.2c-0.3-0.2-0.5-0.5-0.8-0.7c-0.1-0.1-0.2-0.2-0.3-0.3  c-0.3-0.2-0.6-0.5-0.9-0.7c-0.1,0-0.1-0.1-0.2-0.1c-0.3-0.2-0.7-0.5-1-0.7c-0.1-0.1-0.3-0.2-0.4-0.2c-0.3-0.2-0.5-0.3-0.8-0.5  c-0.1-0.1-0.3-0.1-0.4-0.2c-0.4-0.2-0.7-0.4-1.1-0.5c-0.1-0.1-0.3-0.1-0.4-0.2c-0.3-0.1-0.5-0.2-0.8-0.3c-0.2-0.1-0.3-0.1-0.5-0.2  c-0.3-0.1-0.6-0.2-0.9-0.3c-0.2-0.1-0.4-0.1-0.5-0.2c-0.3-0.1-0.6-0.2-0.9-0.2c-0.2,0-0.4-0.1-0.5-0.1c-0.2-0.1-0.5-0.1-0.7-0.1  c-0.2,0-0.4-0.1-0.5-0.1c-0.4-0.1-0.7-0.1-1.1-0.2c-0.2,0-0.4,0-0.6-0.1c-0.2,0-0.5,0-0.7-0.1c-0.2,0-0.4,0-0.6,0  c-0.2,0-0.5,0-0.7,0c-0.3,0-0.6,0-0.9,0c-0.2,0-0.5,0-0.7,0c-0.2,0-0.4,0-0.6,0c-0.2,0-0.4,0-0.6,0.1c-0.2,0-0.4,0-0.6,0.1  c-0.4,0-0.7,0.1-1.1,0.2c0,0,0,0,0,0c-4.2,0.7-8.3,2.3-11.8,4.8c-0.5-2.7-1.2-5.1-2.2-7.2c0.7-1,3.3-3,12.3-4  C74.9,22.4,72.7,5,72.7,5s-4.8,3-12.8,4.3c-7.5,1.2-12.7,8.5-11.3,17.2c-5.4-9.7-15.2-11.8-15.2-11.8c-1,1.2-1.1,3-1.1,3  C43.9,22.2,48.7,30,50.7,35C48,33,34.3,23.6,18.2,33.4C0.4,44.3,2.5,93.7,46.7,95h0c0.5,0,1,0,1.5,0C84.4,95.2,96.9,68.4,90.7,48z"></path></svg>